<svg width="117" height="27" viewBox="0 0 117 27" fill="none" xmlns="http://www.w3.org/2000/svg">
<g clip-path="url(#clip0_1661_3979)">
<path d="M3.1154 1.71346V3.42692H2.28463H1.45386V7.32115V11.2154H2.28463H3.1154V19.1077V27H4.98463H6.85386V19.1077V11.2154H7.68463H8.5154V7.32115V3.42692H7.68463H6.85386V1.71346V-2.74926e-06H4.98463H3.1154V1.71346Z" fill="black"/>
<path d="M11.6308 7.26923V14.5385H10.8H9.96924V18.4327V22.3269H10.8H11.6308V24.6635V27H13.5H15.3692V24.6635V22.3269H16.2H17.0308V18.4327V14.5385H16.2H15.3692V7.26923V-2.74926e-06H13.5H11.6308V7.26923Z" fill="black"/>
<path d="M20.1462 4.36154V8.72308H19.3154H18.4846V12.6173V16.5115H19.3154H20.1462V21.7558V27H22.0154H23.8846V21.7558V16.5115H24.7154H25.5462V12.6173V8.72308H24.7154H23.8846V4.36154V-2.74926e-06H22.0154H20.1462V4.36154Z" fill="black"/>
</g>
<path d="M31.928 21V9.48H41.208C41.6133 9.48 41.9867 9.58133 42.328 9.784C42.6693 9.98667 42.9413 10.2587 43.144 10.6C43.3467 10.9307 43.448 11.2987 43.448 11.704V18.776C43.448 19.1813 43.3467 19.5547 43.144 19.896C42.9413 20.2267 42.6693 20.4933 42.328 20.696C41.9867 20.8987 41.6133 21 41.208 21H31.928ZM34.216 18.872H41.112C41.1653 18.872 41.2133 18.856 41.256 18.824C41.2987 18.7813 41.32 18.7333 41.32 18.68V11.8C41.32 11.7467 41.2987 11.704 41.256 11.672C41.2133 11.6293 41.1653 11.608 41.112 11.608H34.216C34.1627 11.608 34.1147 11.6293 34.072 11.672C34.04 11.704 34.024 11.7467 34.024 11.8V18.68C34.024 18.7333 34.04 18.7813 34.072 18.824C34.1147 18.856 34.1627 18.872 34.216 18.872ZM45.021 21V9.48H47.341L51.517 14.456L55.677 9.48H58.013V21H55.885V12.552L51.517 17.752L47.133 12.568V21H45.021ZM59.9128 17.32V15.224H66.4568V17.32H59.9128ZM68.0984 21V11.72H79.6024C80.0184 11.72 80.3917 11.8213 80.7224 12.024C81.053 12.2267 81.3144 12.4933 81.5064 12.824C81.709 13.1547 81.8104 13.5227 81.8104 13.928V21H79.7304V14.008C79.7304 13.9547 79.709 13.912 79.6664 13.88C79.6237 13.8373 79.5757 13.816 79.5224 13.816H76.2104C76.157 13.816 76.109 13.8373 76.0664 13.88C76.0344 13.912 76.0184 13.9547 76.0184 14.008V21H73.9064V14.008C73.9064 13.9547 73.885 13.912 73.8424 13.88C73.8104 13.8373 73.7677 13.816 73.7144 13.816H70.3864C70.333 13.816 70.285 13.8373 70.2424 13.88C70.2104 13.912 70.1944 13.9547 70.1944 14.008V21H68.0984ZM83.707 21V11.72H85.803V21H83.707ZM83.707 10.792V8.68H85.803V10.792H83.707ZM87.1735 21V20.44L90.5815 16.28L87.1735 12.28V11.72H89.4455L91.9415 14.664L94.4375 11.72H96.7095V12.28L93.3015 16.28L96.7095 20.44V21H94.4535L91.9415 17.928L89.4455 21H87.1735ZM100.04 21C99.6343 21 99.2663 20.8987 98.9356 20.696C98.605 20.4933 98.3383 20.2267 98.1356 19.896C97.933 19.5653 97.8316 19.1973 97.8316 18.792V13.928C97.8316 13.5227 97.933 13.1547 98.1356 12.824C98.3383 12.4933 98.605 12.2267 98.9356 12.024C99.2663 11.8213 99.6343 11.72 100.04 11.72H105.048C105.453 11.72 105.821 11.8213 106.152 12.024C106.493 12.2267 106.76 12.4933 106.952 12.824C107.154 13.1547 107.256 13.5227 107.256 13.928V17.416H99.9276V18.712C99.9276 18.7653 99.9436 18.8133 99.9756 18.856C100.018 18.888 100.066 18.904 100.12 18.904H107.256V21H100.04ZM99.9276 15.528H105.16V14.008C105.16 13.9547 105.138 13.912 105.096 13.88C105.064 13.8373 105.021 13.816 104.968 13.816H100.12C100.066 13.816 100.018 13.8373 99.9756 13.88C99.9436 13.912 99.9276 13.9547 99.9276 14.008V15.528ZM108.832 21V13.928C108.832 13.5227 108.933 13.1547 109.136 12.824C109.339 12.4933 109.605 12.2267 109.936 12.024C110.277 11.8213 110.645 11.72 111.04 11.72H116.192V13.816H111.12C111.067 13.816 111.019 13.8373 110.976 13.88C110.944 13.912 110.928 13.9547 110.928 14.008V21H108.832Z" fill="black"/>
<defs>
<clipPath id="clip0_1661_3979">
<rect width="27" height="27" fill="white"/>
</clipPath>
</defs>
</svg>
